<svg xmlns="http://www.w3.org/2000/svg" width="80" height="80" viewBox="0 0 80 80" fill="none">
  <rect width="80" height="80" rx="8" fill="#111827"/>
  <path d="M26.8 55V25.4H36.2C39.4133 25.4 42.24 26.0267 44.68 27.28C47.1467 28.5067 49.0667 30.28 50.44 32.6C51.8133 34.8933 52.5 37.6267 52.5 40.8C52.5 44 51.8133 46.7467 50.44 49.04C49.0667 51.3333 47.1467 53.1067 44.68 54.36C42.24 55.5867 39.4133 56.2 36.2 56.2H24.88L26.8 55ZM36.2 49.48C39.0267 49.48 41.3067 48.6 43.04 46.84C44.8 45.08 45.68 43.44 45.68 38.92V42.6C45.68 38.1733 44.8 36.5467 43.04 34.76C41.3067 32.9733 39.0267 32.08 36.2 32.08H33.4V49.48H36.2Z" fill="white"/>
</svg>
